<svg xmlns="http://www.w3.org/2000/svg" viewBox="0 0 1100 551" width="1100" height="551" role="img" aria-label="Activity telemetry — 14 repositories, 85 contributions in 12 months, 28 active days, longest streak 9 days. Regenerated 22 JUL 2026 11:49 UTC.">
<title>natishmourani — activity telemetry, regenerated 22 JUL 2026 11:49 UTC</title>
<style>text{font-family:ui-monospace,SFMono-Regular,'SF Mono',Menlo,Consolas,'DejaVu Sans Mono','Liberation Mono',monospace}.cap{font-size:11px;letter-spacing:.2em;font-weight:700}.path{font-size:11.5px}.meta{font-size:10.5px;letter-spacing:.2em}</style>
<rect width="1100" height="551" fill="#12161c"/>
<text x="64" y="76" font-size="46" font-weight="300" fill="#e8ecf1" textLength="138.0" lengthAdjust="spacingAndGlyphs">0x004</text>
<text x="220" y="64" class="cap" fill="#f0a202">$</text>
<text x="228.8" y="64" class="cap" fill="#e8ecf1" textLength="70.4" lengthAdjust="spacing">ACTIVITY</text>
<text x="1036" y="64" class="path" fill="#5c6672" text-anchor="end">~/0x004-activity</text>
<line x1="330" y1="60" x2="920" y2="60" stroke="#242c36"/>
<text x="64" y="124" class="cap" fill="#9ecbff" textLength="316.8" lengthAdjust="spacing">TELEMETRY — WHAT THE HANDS ARE DOING</text>
<text x="1036" y="124" class="cap" fill="#5c6672" text-anchor="end" textLength="70.4" lengthAdjust="spacing">FIG. 004</text>
<line x1="64" y1="134" x2="1036" y2="134" stroke="#242c36"/>
<rect x="64" y="152" width="306" height="200" rx="3" fill="#0c1015" stroke="#242c36"/>
<text x="84" y="180" class="cap" fill="#5c6672" textLength="193.6" lengthAdjust="spacing">LANGUAGE BY REPOSITORY</text>
<line x1="84" y1="192" x2="350" y2="192" stroke="#242c36"/>
<text x="84" y="224" font-size="11.5" font-weight="400" fill="#e8ecf1" textLength="41.4" lengthAdjust="spacingAndGlyphs">python</text>
<rect x="208.4" y="214" width="115.6" height="9" rx="1.5" fill="#1a1f28"/>
<rect x="208.4" y="214" width="115.6" height="9" rx="1.5" fill="#f0a202" opacity="1"/>
<text x="350" y="224" font-size="11.5" font-weight="400" fill="#e8ecf1" text-anchor="end" textLength="6.9" lengthAdjust="spacingAndGlyphs">3</text>
<text x="84" y="247" font-size="11.5" font-weight="400" fill="#5c6672" textLength="20.7" lengthAdjust="spacingAndGlyphs">c++</text>
<rect x="208.4" y="237" width="115.6" height="9" rx="1.5" fill="#1a1f28"/>
<rect x="208.4" y="237" width="115.6" height="9" rx="1.5" fill="#9ecbff" opacity="0.62"/>
<text x="350" y="247" font-size="11.5" font-weight="400" fill="#5c6672" text-anchor="end" textLength="6.9" lengthAdjust="spacingAndGlyphs">3</text>
<text x="84" y="270" font-size="11.5" font-weight="400" fill="#5c6672" textLength="110.4" lengthAdjust="spacingAndGlyphs">jupyter notebook</text>
<rect x="208.4" y="260" width="115.6" height="9" rx="1.5" fill="#1a1f28"/>
<rect x="208.4" y="260" width="77.1" height="9" rx="1.5" fill="#9ecbff" opacity="0.62"/>
<text x="350" y="270" font-size="11.5" font-weight="400" fill="#5c6672" text-anchor="end" textLength="6.9" lengthAdjust="spacingAndGlyphs">2</text>
<text x="84" y="293" font-size="11.5" font-weight="400" fill="#5c6672" textLength="27.6" lengthAdjust="spacingAndGlyphs">html</text>
<rect x="208.4" y="283" width="115.6" height="9" rx="1.5" fill="#1a1f28"/>
<rect x="208.4" y="283" width="77.1" height="9" rx="1.5" fill="#9ecbff" opacity="0.62"/>
<text x="350" y="293" font-size="11.5" font-weight="400" fill="#5c6672" text-anchor="end" textLength="6.9" lengthAdjust="spacingAndGlyphs">2</text>
<text x="84" y="316" font-size="11.5" font-weight="400" fill="#5c6672" textLength="13.8" lengthAdjust="spacingAndGlyphs">c#</text>
<rect x="208.4" y="306" width="115.6" height="9" rx="1.5" fill="#1a1f28"/>
<rect x="208.4" y="306" width="77.1" height="9" rx="1.5" fill="#9ecbff" opacity="0.62"/>
<text x="350" y="316" font-size="11.5" font-weight="400" fill="#5c6672" text-anchor="end" textLength="6.9" lengthAdjust="spacingAndGlyphs">2</text>
<text x="84" y="339" font-size="11.5" font-weight="400" fill="#5c6672" textLength="55.2" lengthAdjust="spacingAndGlyphs">assembly</text>
<rect x="208.4" y="329" width="115.6" height="9" rx="1.5" fill="#1a1f28"/>
<rect x="208.4" y="329" width="38.5" height="9" rx="1.5" fill="#9ecbff" opacity="0.62"/>
<text x="350" y="339" font-size="11.5" font-weight="400" fill="#5c6672" text-anchor="end" textLength="6.9" lengthAdjust="spacingAndGlyphs">1</text>
<rect x="397" y="152" width="306" height="200" rx="3" fill="#0c1015" stroke="#242c36"/>
<text x="417" y="180" class="cap" fill="#5c6672" textLength="237.6" lengthAdjust="spacing">CONTRIBUTION VELOCITY · 26W</text>
<line x1="417" y1="192" x2="683" y2="192" stroke="#242c36"/>
<line x1="423" y1="214" x2="677" y2="214" stroke="#242c36" stroke-dasharray="2 4"/>
<line x1="423" y1="262.0" x2="677" y2="262.0" stroke="#242c36" stroke-dasharray="2 4"/>
<line x1="423" y1="310" x2="677" y2="310" stroke="#242c36" stroke-dasharray="2 4"/>
<path d="M 423.0 310 L 423.0 310.0 L 433.2 310.0 L 443.3 310.0 L 453.5 310.0 L 463.6 310.0 L 473.8 310.0 L 484.0 310.0 L 494.1 310.0 L 504.3 310.0 L 514.4 310.0 L 524.6 310.0 L 534.8 299.3 L 544.9 214.0 L 555.1 272.7 L 565.2 294.0 L 575.4 278.0 L 585.6 299.3 L 595.7 310.0 L 605.9 310.0 L 616.0 246.0 L 626.2 310.0 L 636.4 278.0 L 646.5 283.3 L 656.7 310.0 L 666.8 267.3 L 677.0 299.3 L 677.0 310 Z" fill="#9ecbff" fill-opacity=".10"/>
<polyline points="423.0,310.0 433.2,310.0 443.3,310.0 453.5,310.0 463.6,310.0 473.8,310.0 484.0,310.0 494.1,310.0 504.3,310.0 514.4,310.0 524.6,310.0 534.8,299.3 544.9,214.0 555.1,272.7 565.2,294.0 575.4,278.0 585.6,299.3 595.7,310.0 605.9,310.0 616.0,246.0 626.2,310.0 636.4,278.0 646.5,283.3 656.7,310.0 666.8,267.3 677.0,299.3" fill="none" stroke="#9ecbff" stroke-width="1.6" stroke-linejoin="round" stroke-linecap="round"/>
<line x1="423" y1="310" x2="677" y2="310" stroke="#5c6672"/>
<g><circle cx="544.9" cy="214.0" r="3.4" fill="#f0a202"/><circle cx="544.9" cy="214.0" r="3.4" fill="none" stroke="#f0a202" stroke-width="1.2"><animate attributeName="r" values="3.4;11" dur="2s" repeatCount="indefinite"/><animate attributeName="opacity" values="0.8;0" dur="2s" repeatCount="indefinite"/></circle></g>
<text x="423" y="326" font-size="10" font-weight="400" fill="#5c6672" textLength="42.0" lengthAdjust="spacingAndGlyphs">jan '26</text>
<text x="677" y="326" font-size="10" font-weight="400" fill="#5c6672" text-anchor="end" textLength="42.0" lengthAdjust="spacingAndGlyphs">jul '26</text>
<text x="423" y="338" font-size="10.5" font-weight="400" fill="#5c6672" textLength="94.5" lengthAdjust="spacingAndGlyphs">trend — cooling</text>
<text x="792" y="200" font-size="30" font-weight="700" fill="#f0a202" text-anchor="end" textLength="36.0" lengthAdjust="spacingAndGlyphs">14</text>
<text x="806" y="194" class="cap" fill="#5c6672" textLength="105.6" lengthAdjust="spacing">REPOSITORIES</text>
<text x="792" y="246" font-size="30" font-weight="700" fill="#f0a202" text-anchor="end" textLength="36.0" lengthAdjust="spacingAndGlyphs">85</text>
<text x="806" y="240" class="cap" fill="#5c6672" textLength="167.2" lengthAdjust="spacing">CONTRIBUTIONS · 12M</text>
<text x="792" y="292" font-size="30" font-weight="700" fill="#f0a202" text-anchor="end" textLength="36.0" lengthAdjust="spacingAndGlyphs">28</text>
<text x="806" y="286" class="cap" fill="#5c6672" textLength="96.8" lengthAdjust="spacing">ACTIVE DAYS</text>
<text x="792" y="338" font-size="30" font-weight="700" fill="#f0a202" text-anchor="end" textLength="18.0" lengthAdjust="spacingAndGlyphs">9</text>
<text x="806" y="332" class="cap" fill="#5c6672" textLength="123.2" lengthAdjust="spacing">LONGEST STREAK</text>
<text x="64" y="376" class="cap" fill="#5c6672" textLength="290.4" lengthAdjust="spacing">CONTRIBUTION CALENDAR · 12 MONTHS</text>
<rect x="64" y="406" width="11" height="11" rx="2" fill="#1a1f28"/>
<rect x="64" y="420" width="11" height="11" rx="2" fill="#1a1f28"/>
<rect x="64" y="434" width="11" height="11" rx="2" fill="#1a1f28"/>
<rect x="64" y="448" width="11" height="11" rx="2" fill="#1a1f28"/>
<rect x="64" y="462" width="11" height="11" rx="2" fill="#1a1f28"/>
<rect x="64" y="476" width="11" height="11" rx="2" fill="#1a1f28"/>
<rect x="64" y="490" width="11" height="11" rx="2" fill="#1a1f28"/>
<rect x="78" y="406" width="11" height="11" rx="2" fill="#1a1f28"/>
<rect x="78" y="420" width="11" height="11" rx="2" fill="#1a1f28"/>
<rect x="78" y="434" width="11" height="11" rx="2" fill="#1a1f28"/>
<rect x="78" y="448" width="11" height="11" rx="2" fill="#1a1f28"/>
<rect x="78" y="462" width="11" height="11" rx="2" fill="#1a1f28"/>
<rect x="78" y="476" width="11" height="11" rx="2" fill="#1a1f28"/>
<rect x="78" y="490" width="11" height="11" rx="2" fill="#1a1f28"/>
<rect x="92" y="406" width="11" height="11" rx="2" fill="#1a1f28"/>
<text x="92" y="394" font-size="9" font-weight="400" fill="#5c6672" textLength="16.2" lengthAdjust="spacingAndGlyphs">AUG</text>
<rect x="92" y="420" width="11" height="11" rx="2" fill="#1a1f28"/>
<rect x="92" y="434" width="11" height="11" rx="2" fill="#1a1f28"/>
<rect x="92" y="448" width="11" height="11" rx="2" fill="#1a1f28"/>
<rect x="92" y="462" width="11" height="11" rx="2" fill="#1a1f28"/>
<rect x="92" y="476" width="11" height="11" rx="2" fill="#1a1f28"/>
<rect x="92" y="490" width="11" height="11" rx="2" fill="#1a1f28"/>
<rect x="106" y="406" width="11" height="11" rx="2" fill="#1a1f28"/>
<rect x="106" y="420" width="11" height="11" rx="2" fill="#1a1f28"/>
<rect x="106" y="434" width="11" height="11" rx="2" fill="#1a1f28"/>
<rect x="106" y="448" width="11" height="11" rx="2" fill="#1a1f28"/>
<rect x="106" y="462" width="11" height="11" rx="2" fill="#1a1f28"/>
<rect x="106" y="476" width="11" height="11" rx="2" fill="#1a1f28"/>
<rect x="106" y="490" width="11" height="11" rx="2" fill="#1a1f28"/>
<rect x="120" y="406" width="11" height="11" rx="2" fill="#1a1f28"/>
<rect x="120" y="420" width="11" height="11" rx="2" fill="#1a1f28"/>
<rect x="120" y="434" width="11" height="11" rx="2" fill="#1a1f28"/>
<rect x="120" y="448" width="11" height="11" rx="2" fill="#1a1f28"/>
<rect x="120" y="462" width="11" height="11" rx="2" fill="#1a1f28"/>
<rect x="120" y="476" width="11" height="11" rx="2" fill="#1a1f28"/>
<rect x="120" y="490" width="11" height="11" rx="2" fill="#1a1f28"/>
<rect x="134" y="406" width="11" height="11" rx="2" fill="#1a1f28"/>
<rect x="134" y="420" width="11" height="11" rx="2" fill="#1a1f28"/>
<rect x="134" y="434" width="11" height="11" rx="2" fill="#1a1f28"/>
<rect x="134" y="448" width="11" height="11" rx="2" fill="#1a1f28"/>
<rect x="134" y="462" width="11" height="11" rx="2" fill="#f0a202"/>
<rect x="134" y="476" width="11" height="11" rx="2" fill="#1a1f28"/>
<rect x="134" y="490" width="11" height="11" rx="2" fill="#1a1f28"/>
<rect x="148" y="406" width="11" height="11" rx="2" fill="#1a1f28"/>
<rect x="148" y="420" width="11" height="11" rx="2" fill="#1a1f28"/>
<rect x="148" y="434" width="11" height="11" rx="2" fill="#1a1f28"/>
<rect x="148" y="448" width="11" height="11" rx="2" fill="#1a1f28"/>
<rect x="148" y="462" width="11" height="11" rx="2" fill="#1a1f28"/>
<rect x="148" y="476" width="11" height="11" rx="2" fill="#1a1f28"/>
<rect x="148" y="490" width="11" height="11" rx="2" fill="#1a1f28"/>
<rect x="162" y="406" width="11" height="11" rx="2" fill="#1a1f28"/>
<text x="162" y="394" font-size="9" font-weight="400" fill="#5c6672" textLength="16.2" lengthAdjust="spacingAndGlyphs">SEP</text>
<rect x="162" y="420" width="11" height="11" rx="2" fill="#1a1f28"/>
<rect x="162" y="434" width="11" height="11" rx="2" fill="#1a1f28"/>
<rect x="162" y="448" width="11" height="11" rx="2" fill="#1a1f28"/>
<rect x="162" y="462" width="11" height="11" rx="2" fill="#1a1f28"/>
<rect x="162" y="476" width="11" height="11" rx="2" fill="#1a1f28"/>
<rect x="162" y="490" width="11" height="11" rx="2" fill="#1a1f28"/>
<rect x="176" y="406" width="11" height="11" rx="2" fill="#1a1f28"/>
<rect x="176" y="420" width="11" height="11" rx="2" fill="#1a1f28"/>
<rect x="176" y="434" width="11" height="11" rx="2" fill="#1a1f28"/>
<rect x="176" y="448" width="11" height="11" rx="2" fill="#1a1f28"/>
<rect x="176" y="462" width="11" height="11" rx="2" fill="#1a1f28"/>
<rect x="176" y="476" width="11" height="11" rx="2" fill="#1a1f28"/>
<rect x="176" y="490" width="11" height="11" rx="2" fill="#1a1f28"/>
<rect x="190" y="406" width="11" height="11" rx="2" fill="#1a1f28"/>
<rect x="190" y="420" width="11" height="11" rx="2" fill="#1a1f28"/>
<rect x="190" y="434" width="11" height="11" rx="2" fill="#1a1f28"/>
<rect x="190" y="448" width="11" height="11" rx="2" fill="#1a1f28"/>
<rect x="190" y="462" width="11" height="11" rx="2" fill="#1a1f28"/>
<rect x="190" y="476" width="11" height="11" rx="2" fill="#1a1f28"/>
<rect x="190" y="490" width="11" height="11" rx="2" fill="#1a1f28"/>
<rect x="204" y="406" width="11" height="11" rx="2" fill="#1a1f28"/>
<rect x="204" y="420" width="11" height="11" rx="2" fill="#1a1f28"/>
<rect x="204" y="434" width="11" height="11" rx="2" fill="#1a1f28"/>
<rect x="204" y="448" width="11" height="11" rx="2" fill="#1a1f28"/>
<rect x="204" y="462" width="11" height="11" rx="2" fill="#1a1f28"/>
<rect x="204" y="476" width="11" height="11" rx="2" fill="#1a1f28"/>
<rect x="204" y="490" width="11" height="11" rx="2" fill="#1a1f28"/>
<rect x="218" y="406" width="11" height="11" rx="2" fill="#1a1f28"/>
<text x="218" y="394" font-size="9" font-weight="400" fill="#5c6672" textLength="16.2" lengthAdjust="spacingAndGlyphs">OCT</text>
<rect x="218" y="420" width="11" height="11" rx="2" fill="#1a1f28"/>
<rect x="218" y="434" width="11" height="11" rx="2" fill="#1a1f28"/>
<rect x="218" y="448" width="11" height="11" rx="2" fill="#1a1f28"/>
<rect x="218" y="462" width="11" height="11" rx="2" fill="#1a1f28"/>
<rect x="218" y="476" width="11" height="11" rx="2" fill="#1a1f28"/>
<rect x="218" y="490" width="11" height="11" rx="2" fill="#1a1f28"/>
<rect x="232" y="406" width="11" height="11" rx="2" fill="#1a1f28"/>
<rect x="232" y="420" width="11" height="11" rx="2" fill="#1a1f28"/>
<rect x="232" y="434" width="11" height="11" rx="2" fill="#1a1f28"/>
<rect x="232" y="448" width="11" height="11" rx="2" fill="#1a1f28"/>
<rect x="232" y="462" width="11" height="11" rx="2" fill="#1a1f28"/>
<rect x="232" y="476" width="11" height="11" rx="2" fill="#1a1f28"/>
<rect x="232" y="490" width="11" height="11" rx="2" fill="#1a1f28"/>
<rect x="246" y="406" width="11" height="11" rx="2" fill="#1a1f28"/>
<rect x="246" y="420" width="11" height="11" rx="2" fill="#1a1f28"/>
<rect x="246" y="434" width="11" height="11" rx="2" fill="#1a1f28"/>
<rect x="246" y="448" width="11" height="11" rx="2" fill="#1a1f28"/>
<rect x="246" y="462" width="11" height="11" rx="2" fill="#1a1f28"/>
<rect x="246" y="476" width="11" height="11" rx="2" fill="#1a1f28"/>
<rect x="246" y="490" width="11" height="11" rx="2" fill="#1a1f28"/>
<rect x="260" y="406" width="11" height="11" rx="2" fill="#1a1f28"/>
<rect x="260" y="420" width="11" height="11" rx="2" fill="#1a1f28"/>
<rect x="260" y="434" width="11" height="11" rx="2" fill="#1a1f28"/>
<rect x="260" y="448" width="11" height="11" rx="2" fill="#1a1f28"/>
<rect x="260" y="462" width="11" height="11" rx="2" fill="#1a1f28"/>
<rect x="260" y="476" width="11" height="11" rx="2" fill="#1a1f28"/>
<rect x="260" y="490" width="11" height="11" rx="2" fill="#1a1f28"/>
<rect x="274" y="406" width="11" height="11" rx="2" fill="#1a1f28"/>
<text x="274" y="394" font-size="9" font-weight="400" fill="#5c6672" textLength="16.2" lengthAdjust="spacingAndGlyphs">NOV</text>
<rect x="274" y="420" width="11" height="11" rx="2" fill="#1a1f28"/>
<rect x="274" y="434" width="11" height="11" rx="2" fill="#1a1f28"/>
<rect x="274" y="448" width="11" height="11" rx="2" fill="#1a1f28"/>
<rect x="274" y="462" width="11" height="11" rx="2" fill="#1a1f28"/>
<rect x="274" y="476" width="11" height="11" rx="2" fill="#1a1f28"/>
<rect x="274" y="490" width="11" height="11" rx="2" fill="#1a1f28"/>
<rect x="288" y="406" width="11" height="11" rx="2" fill="#1a1f28"/>
<rect x="288" y="420" width="11" height="11" rx="2" fill="#1a1f28"/>
<rect x="288" y="434" width="11" height="11" rx="2" fill="#1a1f28"/>
<rect x="288" y="448" width="11" height="11" rx="2" fill="#1a1f28"/>
<rect x="288" y="462" width="11" height="11" rx="2" fill="#1a1f28"/>
<rect x="288" y="476" width="11" height="11" rx="2" fill="#1a1f28"/>
<rect x="288" y="490" width="11" height="11" rx="2" fill="#1a1f28"/>
<rect x="302" y="406" width="11" height="11" rx="2" fill="#1a1f28"/>
<rect x="302" y="420" width="11" height="11" rx="2" fill="#1a1f28"/>
<rect x="302" y="434" width="11" height="11" rx="2" fill="#1a1f28"/>
<rect x="302" y="448" width="11" height="11" rx="2" fill="#1a1f28"/>
<rect x="302" y="462" width="11" height="11" rx="2" fill="#1a1f28"/>
<rect x="302" y="476" width="11" height="11" rx="2" fill="#1a1f28"/>
<rect x="302" y="490" width="11" height="11" rx="2" fill="#1a1f28"/>
<rect x="316" y="406" width="11" height="11" rx="2" fill="#1a1f28"/>
<rect x="316" y="420" width="11" height="11" rx="2" fill="#1a1f28"/>
<rect x="316" y="434" width="11" height="11" rx="2" fill="#1a1f28"/>
<rect x="316" y="448" width="11" height="11" rx="2" fill="#1a1f28"/>
<rect x="316" y="462" width="11" height="11" rx="2" fill="#1a1f28"/>
<rect x="316" y="476" width="11" height="11" rx="2" fill="#1a1f28"/>
<rect x="316" y="490" width="11" height="11" rx="2" fill="#1a1f28"/>
<rect x="330" y="406" width="11" height="11" rx="2" fill="#1a1f28"/>
<rect x="330" y="420" width="11" height="11" rx="2" fill="#1a1f28"/>
<rect x="330" y="434" width="11" height="11" rx="2" fill="#1a1f28"/>
<rect x="330" y="448" width="11" height="11" rx="2" fill="#1a1f28"/>
<rect x="330" y="462" width="11" height="11" rx="2" fill="#1a1f28"/>
<rect x="330" y="476" width="11" height="11" rx="2" fill="#1a1f28"/>
<rect x="330" y="490" width="11" height="11" rx="2" fill="#1a1f28"/>
<rect x="344" y="406" width="11" height="11" rx="2" fill="#1a1f28"/>
<text x="344" y="394" font-size="9" font-weight="400" fill="#5c6672" textLength="16.2" lengthAdjust="spacingAndGlyphs">DEC</text>
<rect x="344" y="420" width="11" height="11" rx="2" fill="#1a1f28"/>
<rect x="344" y="434" width="11" height="11" rx="2" fill="#1a1f28"/>
<rect x="344" y="448" width="11" height="11" rx="2" fill="#1a1f28"/>
<rect x="344" y="462" width="11" height="11" rx="2" fill="#1a1f28"/>
<rect x="344" y="476" width="11" height="11" rx="2" fill="#1a1f28"/>
<rect x="344" y="490" width="11" height="11" rx="2" fill="#1a1f28"/>
<rect x="358" y="406" width="11" height="11" rx="2" fill="#1a1f28"/>
<rect x="358" y="420" width="11" height="11" rx="2" fill="#1a1f28"/>
<rect x="358" y="434" width="11" height="11" rx="2" fill="#1a1f28"/>
<rect x="358" y="448" width="11" height="11" rx="2" fill="#1a1f28"/>
<rect x="358" y="462" width="11" height="11" rx="2" fill="#1a1f28"/>
<rect x="358" y="476" width="11" height="11" rx="2" fill="#1a1f28"/>
<rect x="358" y="490" width="11" height="11" rx="2" fill="#1a1f28"/>
<rect x="372" y="406" width="11" height="11" rx="2" fill="#1a1f28"/>
<rect x="372" y="420" width="11" height="11" rx="2" fill="#1a1f28"/>
<rect x="372" y="434" width="11" height="11" rx="2" fill="#1a1f28"/>
<rect x="372" y="448" width="11" height="11" rx="2" fill="#1a1f28"/>
<rect x="372" y="462" width="11" height="11" rx="2" fill="#1a1f28"/>
<rect x="372" y="476" width="11" height="11" rx="2" fill="#1a1f28"/>
<rect x="372" y="490" width="11" height="11" rx="2" fill="#1a1f28"/>
<rect x="386" y="406" width="11" height="11" rx="2" fill="#1a1f28"/>
<rect x="386" y="420" width="11" height="11" rx="2" fill="#1a1f28"/>
<rect x="386" y="434" width="11" height="11" rx="2" fill="#1a1f28"/>
<rect x="386" y="448" width="11" height="11" rx="2" fill="#1a1f28"/>
<rect x="386" y="462" width="11" height="11" rx="2" fill="#1a1f28"/>
<rect x="386" y="476" width="11" height="11" rx="2" fill="#1a1f28"/>
<rect x="386" y="490" width="11" height="11" rx="2" fill="#1a1f28"/>
<rect x="400" y="406" width="11" height="11" rx="2" fill="#1a1f28"/>
<text x="400" y="394" font-size="9" font-weight="400" fill="#5c6672" textLength="16.2" lengthAdjust="spacingAndGlyphs">JAN</text>
<rect x="400" y="420" width="11" height="11" rx="2" fill="#1a1f28"/>
<rect x="400" y="434" width="11" height="11" rx="2" fill="#1a1f28"/>
<rect x="400" y="448" width="11" height="11" rx="2" fill="#1a1f28"/>
<rect x="400" y="462" width="11" height="11" rx="2" fill="#1a1f28"/>
<rect x="400" y="476" width="11" height="11" rx="2" fill="#1a1f28"/>
<rect x="400" y="490" width="11" height="11" rx="2" fill="#1a1f28"/>
<rect x="414" y="406" width="11" height="11" rx="2" fill="#1a1f28"/>
<rect x="414" y="420" width="11" height="11" rx="2" fill="#1a1f28"/>
<rect x="414" y="434" width="11" height="11" rx="2" fill="#1a1f28"/>
<rect x="414" y="448" width="11" height="11" rx="2" fill="#1d4257"/>
<rect x="414" y="462" width="11" height="11" rx="2" fill="#1a1f28"/>
<rect x="414" y="476" width="11" height="11" rx="2" fill="#1a1f28"/>
<rect x="414" y="490" width="11" height="11" rx="2" fill="#1a1f28"/>
<rect x="428" y="406" width="11" height="11" rx="2" fill="#1a1f28"/>
<rect x="428" y="420" width="11" height="11" rx="2" fill="#1a1f28"/>
<rect x="428" y="434" width="11" height="11" rx="2" fill="#1a1f28"/>
<rect x="428" y="448" width="11" height="11" rx="2" fill="#1a1f28"/>
<rect x="428" y="462" width="11" height="11" rx="2" fill="#1a1f28"/>
<rect x="428" y="476" width="11" height="11" rx="2" fill="#1a1f28"/>
<rect x="428" y="490" width="11" height="11" rx="2" fill="#1a1f28"/>
<rect x="442" y="406" width="11" height="11" rx="2" fill="#1a1f28"/>
<rect x="442" y="420" width="11" height="11" rx="2" fill="#1a1f28"/>
<rect x="442" y="434" width="11" height="11" rx="2" fill="#1a1f28"/>
<rect x="442" y="448" width="11" height="11" rx="2" fill="#1a1f28"/>
<rect x="442" y="462" width="11" height="11" rx="2" fill="#1a1f28"/>
<rect x="442" y="476" width="11" height="11" rx="2" fill="#1a1f28"/>
<rect x="442" y="490" width="11" height="11" rx="2" fill="#1a1f28"/>
<rect x="456" y="406" width="11" height="11" rx="2" fill="#1a1f28"/>
<text x="456" y="394" font-size="9" font-weight="400" fill="#5c6672" textLength="16.2" lengthAdjust="spacingAndGlyphs">FEB</text>
<rect x="456" y="420" width="11" height="11" rx="2" fill="#1a1f28"/>
<rect x="456" y="434" width="11" height="11" rx="2" fill="#1a1f28"/>
<rect x="456" y="448" width="11" height="11" rx="2" fill="#1a1f28"/>
<rect x="456" y="462" width="11" height="11" rx="2" fill="#1a1f28"/>
<rect x="456" y="476" width="11" height="11" rx="2" fill="#1a1f28"/>
<rect x="456" y="490" width="11" height="11" rx="2" fill="#1a1f28"/>
<rect x="470" y="406" width="11" height="11" rx="2" fill="#1a1f28"/>
<rect x="470" y="420" width="11" height="11" rx="2" fill="#1a1f28"/>
<rect x="470" y="434" width="11" height="11" rx="2" fill="#1a1f28"/>
<rect x="470" y="448" width="11" height="11" rx="2" fill="#1a1f28"/>
<rect x="470" y="462" width="11" height="11" rx="2" fill="#1a1f28"/>
<rect x="470" y="476" width="11" height="11" rx="2" fill="#1a1f28"/>
<rect x="470" y="490" width="11" height="11" rx="2" fill="#1a1f28"/>
<rect x="484" y="406" width="11" height="11" rx="2" fill="#1a1f28"/>
<rect x="484" y="420" width="11" height="11" rx="2" fill="#1a1f28"/>
<rect x="484" y="434" width="11" height="11" rx="2" fill="#1a1f28"/>
<rect x="484" y="448" width="11" height="11" rx="2" fill="#1a1f28"/>
<rect x="484" y="462" width="11" height="11" rx="2" fill="#1a1f28"/>
<rect x="484" y="476" width="11" height="11" rx="2" fill="#1a1f28"/>
<rect x="484" y="490" width="11" height="11" rx="2" fill="#1a1f28"/>
<rect x="498" y="406" width="11" height="11" rx="2" fill="#1a1f28"/>
<rect x="498" y="420" width="11" height="11" rx="2" fill="#1a1f28"/>
<rect x="498" y="434" width="11" height="11" rx="2" fill="#1a1f28"/>
<rect x="498" y="448" width="11" height="11" rx="2" fill="#1a1f28"/>
<rect x="498" y="462" width="11" height="11" rx="2" fill="#1a1f28"/>
<rect x="498" y="476" width="11" height="11" rx="2" fill="#1a1f28"/>
<rect x="498" y="490" width="11" height="11" rx="2" fill="#1a1f28"/>
<rect x="512" y="406" width="11" height="11" rx="2" fill="#1a1f28"/>
<text x="512" y="394" font-size="9" font-weight="400" fill="#5c6672" textLength="16.2" lengthAdjust="spacingAndGlyphs">MAR</text>
<rect x="512" y="420" width="11" height="11" rx="2" fill="#1a1f28"/>
<rect x="512" y="434" width="11" height="11" rx="2" fill="#1a1f28"/>
<rect x="512" y="448" width="11" height="11" rx="2" fill="#1a1f28"/>
<rect x="512" y="462" width="11" height="11" rx="2" fill="#1a1f28"/>
<rect x="512" y="476" width="11" height="11" rx="2" fill="#1a1f28"/>
<rect x="512" y="490" width="11" height="11" rx="2" fill="#1a1f28"/>
<rect x="526" y="406" width="11" height="11" rx="2" fill="#1a1f28"/>
<rect x="526" y="420" width="11" height="11" rx="2" fill="#1a1f28"/>
<rect x="526" y="434" width="11" height="11" rx="2" fill="#1a1f28"/>
<rect x="526" y="448" width="11" height="11" rx="2" fill="#1a1f28"/>
<rect x="526" y="462" width="11" height="11" rx="2" fill="#1a1f28"/>
<rect x="526" y="476" width="11" height="11" rx="2" fill="#1a1f28"/>
<rect x="526" y="490" width="11" height="11" rx="2" fill="#1a1f28"/>
<rect x="540" y="406" width="11" height="11" rx="2" fill="#1a1f28"/>
<rect x="540" y="420" width="11" height="11" rx="2" fill="#1a1f28"/>
<rect x="540" y="434" width="11" height="11" rx="2" fill="#1a1f28"/>
<rect x="540" y="448" width="11" height="11" rx="2" fill="#1a1f28"/>
<rect x="540" y="462" width="11" height="11" rx="2" fill="#1a1f28"/>
<rect x="540" y="476" width="11" height="11" rx="2" fill="#1a1f28"/>
<rect x="540" y="490" width="11" height="11" rx="2" fill="#1a1f28"/>
<rect x="554" y="406" width="11" height="11" rx="2" fill="#1a1f28"/>
<rect x="554" y="420" width="11" height="11" rx="2" fill="#1a1f28"/>
<rect x="554" y="434" width="11" height="11" rx="2" fill="#1a1f28"/>
<rect x="554" y="448" width="11" height="11" rx="2" fill="#1a1f28"/>
<rect x="554" y="462" width="11" height="11" rx="2" fill="#1a1f28"/>
<rect x="554" y="476" width="11" height="11" rx="2" fill="#1a1f28"/>
<rect x="554" y="490" width="11" height="11" rx="2" fill="#1a1f28"/>
<rect x="568" y="406" width="11" height="11" rx="2" fill="#1a1f28"/>
<rect x="568" y="420" width="11" height="11" rx="2" fill="#1a1f28"/>
<rect x="568" y="434" width="11" height="11" rx="2" fill="#1a1f28"/>
<rect x="568" y="448" width="11" height="11" rx="2" fill="#1a1f28"/>
<rect x="568" y="462" width="11" height="11" rx="2" fill="#1a1f28"/>
<rect x="568" y="476" width="11" height="11" rx="2" fill="#1a1f28"/>
<rect x="568" y="490" width="11" height="11" rx="2" fill="#1a1f28"/>
<rect x="582" y="406" width="11" height="11" rx="2" fill="#1a1f28"/>
<text x="582" y="394" font-size="9" font-weight="400" fill="#5c6672" textLength="16.2" lengthAdjust="spacingAndGlyphs">APR</text>
<rect x="582" y="420" width="11" height="11" rx="2" fill="#1a1f28"/>
<rect x="582" y="434" width="11" height="11" rx="2" fill="#1a1f28"/>
<rect x="582" y="448" width="11" height="11" rx="2" fill="#1a1f28"/>
<rect x="582" y="462" width="11" height="11" rx="2" fill="#1a1f28"/>
<rect x="582" y="476" width="11" height="11" rx="2" fill="#1a1f28"/>
<rect x="582" y="490" width="11" height="11" rx="2" fill="#1a1f28"/>
<rect x="596" y="406" width="11" height="11" rx="2" fill="#1a1f28"/>
<rect x="596" y="420" width="11" height="11" rx="2" fill="#1a1f28"/>
<rect x="596" y="434" width="11" height="11" rx="2" fill="#1a1f28"/>
<rect x="596" y="448" width="11" height="11" rx="2" fill="#1a1f28"/>
<rect x="596" y="462" width="11" height="11" rx="2" fill="#1a1f28"/>
<rect x="596" y="476" width="11" height="11" rx="2" fill="#1a1f28"/>
<rect x="596" y="490" width="11" height="11" rx="2" fill="#1d4257"/>
<rect x="610" y="406" width="11" height="11" rx="2" fill="#5aa3c6"/>
<rect x="610" y="420" width="11" height="11" rx="2" fill="#1a1f28"/>
<rect x="610" y="434" width="11" height="11" rx="2" fill="#1d4257"/>
<rect x="610" y="448" width="11" height="11" rx="2" fill="#1d4257"/>
<rect x="610" y="462" width="11" height="11" rx="2" fill="#1d4257"/>
<rect x="610" y="476" width="11" height="11" rx="2" fill="#2b7392"/>
<rect x="610" y="490" width="11" height="11" rx="2" fill="#2b7392"/>
<rect x="624" y="406" width="11" height="11" rx="2" fill="#1d4257"/>
<rect x="624" y="420" width="11" height="11" rx="2" fill="#1d4257"/>
<rect x="624" y="434" width="11" height="11" rx="2" fill="#1d4257"/>
<rect x="624" y="448" width="11" height="11" rx="2" fill="#1d4257"/>
<rect x="624" y="462" width="11" height="11" rx="2" fill="#1a1f28"/>
<rect x="624" y="476" width="11" height="11" rx="2" fill="#1a1f28"/>
<rect x="624" y="490" width="11" height="11" rx="2" fill="#1d4257"/>
<rect x="638" y="406" width="11" height="11" rx="2" fill="#1a1f28"/>
<text x="638" y="394" font-size="9" font-weight="400" fill="#5c6672" textLength="16.2" lengthAdjust="spacingAndGlyphs">MAY</text>
<rect x="638" y="420" width="11" height="11" rx="2" fill="#1a1f28"/>
<rect x="638" y="434" width="11" height="11" rx="2" fill="#1a1f28"/>
<rect x="638" y="448" width="11" height="11" rx="2" fill="#1a1f28"/>
<rect x="638" y="462" width="11" height="11" rx="2" fill="#1a1f28"/>
<rect x="638" y="476" width="11" height="11" rx="2" fill="#1d4257"/>
<rect x="638" y="490" width="11" height="11" rx="2" fill="#1d4257"/>
<rect x="652" y="406" width="11" height="11" rx="2" fill="#1a1f28"/>
<rect x="652" y="420" width="11" height="11" rx="2" fill="#5aa3c6"/>
<rect x="652" y="434" width="11" height="11" rx="2" fill="#1d4257"/>
<rect x="652" y="448" width="11" height="11" rx="2" fill="#1a1f28"/>
<rect x="652" y="462" width="11" height="11" rx="2" fill="#1a1f28"/>
<rect x="652" y="476" width="11" height="11" rx="2" fill="#1a1f28"/>
<rect x="652" y="490" width="11" height="11" rx="2" fill="#1a1f28"/>
<rect x="666" y="406" width="11" height="11" rx="2" fill="#1a1f28"/>
<rect x="666" y="420" width="11" height="11" rx="2" fill="#1a1f28"/>
<rect x="666" y="434" width="11" height="11" rx="2" fill="#1d4257"/>
<rect x="666" y="448" width="11" height="11" rx="2" fill="#1d4257"/>
<rect x="666" y="462" width="11" height="11" rx="2" fill="#1a1f28"/>
<rect x="666" y="476" width="11" height="11" rx="2" fill="#1a1f28"/>
<rect x="666" y="490" width="11" height="11" rx="2" fill="#1a1f28"/>
<rect x="680" y="406" width="11" height="11" rx="2" fill="#1a1f28"/>
<rect x="680" y="420" width="11" height="11" rx="2" fill="#1a1f28"/>
<rect x="680" y="434" width="11" height="11" rx="2" fill="#1a1f28"/>
<rect x="680" y="448" width="11" height="11" rx="2" fill="#1a1f28"/>
<rect x="680" y="462" width="11" height="11" rx="2" fill="#1a1f28"/>
<rect x="680" y="476" width="11" height="11" rx="2" fill="#1a1f28"/>
<rect x="680" y="490" width="11" height="11" rx="2" fill="#1a1f28"/>
<rect x="694" y="406" width="11" height="11" rx="2" fill="#1a1f28"/>
<rect x="694" y="420" width="11" height="11" rx="2" fill="#1a1f28"/>
<rect x="694" y="434" width="11" height="11" rx="2" fill="#1a1f28"/>
<rect x="694" y="448" width="11" height="11" rx="2" fill="#1a1f28"/>
<rect x="694" y="462" width="11" height="11" rx="2" fill="#1a1f28"/>
<rect x="694" y="476" width="11" height="11" rx="2" fill="#1a1f28"/>
<rect x="694" y="490" width="11" height="11" rx="2" fill="#1a1f28"/>
<rect x="708" y="406" width="11" height="11" rx="2" fill="#1a1f28"/>
<text x="708" y="394" font-size="9" font-weight="400" fill="#5c6672" textLength="16.2" lengthAdjust="spacingAndGlyphs">JUN</text>
<rect x="708" y="420" width="11" height="11" rx="2" fill="#1a1f28"/>
<rect x="708" y="434" width="11" height="11" rx="2" fill="#1a1f28"/>
<rect x="708" y="448" width="11" height="11" rx="2" fill="#2b7392"/>
<rect x="708" y="462" width="11" height="11" rx="2" fill="#1d4257"/>
<rect x="708" y="476" width="11" height="11" rx="2" fill="#9ecbff"/>
<rect x="708" y="490" width="11" height="11" rx="2" fill="#1d4257"/>
<rect x="722" y="406" width="11" height="11" rx="2" fill="#1a1f28"/>
<rect x="722" y="420" width="11" height="11" rx="2" fill="#1a1f28"/>
<rect x="722" y="434" width="11" height="11" rx="2" fill="#1a1f28"/>
<rect x="722" y="448" width="11" height="11" rx="2" fill="#1a1f28"/>
<rect x="722" y="462" width="11" height="11" rx="2" fill="#1a1f28"/>
<rect x="722" y="476" width="11" height="11" rx="2" fill="#1a1f28"/>
<rect x="722" y="490" width="11" height="11" rx="2" fill="#1a1f28"/>
<rect x="736" y="406" width="11" height="11" rx="2" fill="#5aa3c6"/>
<rect x="736" y="420" width="11" height="11" rx="2" fill="#1a1f28"/>
<rect x="736" y="434" width="11" height="11" rx="2" fill="#1a1f28"/>
<rect x="736" y="448" width="11" height="11" rx="2" fill="#1a1f28"/>
<rect x="736" y="462" width="11" height="11" rx="2" fill="#1a1f28"/>
<rect x="736" y="476" width="11" height="11" rx="2" fill="#1a1f28"/>
<rect x="736" y="490" width="11" height="11" rx="2" fill="#1a1f28"/>
<rect x="750" y="406" width="11" height="11" rx="2" fill="#5aa3c6"/>
<rect x="750" y="420" width="11" height="11" rx="2" fill="#1a1f28"/>
<rect x="750" y="434" width="11" height="11" rx="2" fill="#1a1f28"/>
<rect x="750" y="448" width="11" height="11" rx="2" fill="#1a1f28"/>
<rect x="750" y="462" width="11" height="11" rx="2" fill="#1a1f28"/>
<rect x="750" y="476" width="11" height="11" rx="2" fill="#1a1f28"/>
<rect x="750" y="490" width="11" height="11" rx="2" fill="#1a1f28"/>
<rect x="764" y="406" width="11" height="11" rx="2" fill="#1a1f28"/>
<text x="764" y="394" font-size="9" font-weight="400" fill="#5c6672" textLength="16.2" lengthAdjust="spacingAndGlyphs">JUL</text>
<rect x="764" y="420" width="11" height="11" rx="2" fill="#1a1f28"/>
<rect x="764" y="434" width="11" height="11" rx="2" fill="#1a1f28"/>
<rect x="764" y="448" width="11" height="11" rx="2" fill="#1a1f28"/>
<rect x="764" y="462" width="11" height="11" rx="2" fill="#1a1f28"/>
<rect x="764" y="476" width="11" height="11" rx="2" fill="#1a1f28"/>
<rect x="764" y="490" width="11" height="11" rx="2" fill="#1a1f28"/>
<rect x="778" y="406" width="11" height="11" rx="2" fill="#1a1f28"/>
<rect x="778" y="420" width="11" height="11" rx="2" fill="#1a1f28"/>
<rect x="778" y="434" width="11" height="11" rx="2" fill="#1a1f28"/>
<rect x="778" y="448" width="11" height="11" rx="2" fill="#9ecbff"/>
<rect x="778" y="462" width="11" height="11" rx="2" fill="#1a1f28"/>
<rect x="778" y="476" width="11" height="11" rx="2" fill="#1a1f28"/>
<rect x="778" y="490" width="11" height="11" rx="2" fill="#1a1f28"/>
<rect x="792" y="406" width="11" height="11" rx="2" fill="#1a1f28"/>
<rect x="792" y="420" width="11" height="11" rx="2" fill="#1a1f28"/>
<rect x="792" y="434" width="11" height="11" rx="2" fill="#1a1f28"/>
<rect x="792" y="448" width="11" height="11" rx="2" fill="#1d4257"/>
<text x="665" y="525" font-size="9" font-weight="400" fill="#5c6672" textLength="21.6" lengthAdjust="spacingAndGlyphs">LESS</text>
<rect x="699" y="516" width="11" height="11" rx="2" fill="#1a1f28"/>
<rect x="713" y="516" width="11" height="11" rx="2" fill="#1d4257"/>
<rect x="727" y="516" width="11" height="11" rx="2" fill="#2b7392"/>
<rect x="741" y="516" width="11" height="11" rx="2" fill="#5aa3c6"/>
<rect x="755" y="516" width="11" height="11" rx="2" fill="#9ecbff"/>
<text x="775" y="525" font-size="9" font-weight="400" fill="#5c6672" textLength="21.6" lengthAdjust="spacingAndGlyphs">MORE</text>
<line x1="833" y1="402" x2="833" y2="501" stroke="#242c36"/>
<text x="853" y="412" font-size="9.5" font-weight="700" letter-spacing=".18em" fill="#5c6672" textLength="106.4" lengthAdjust="spacing">CURRENT STREAK</text>
<text x="1036" y="412" font-size="11.5" font-weight="400" fill="#e8ecf1" text-anchor="end" textLength="34.5" lengthAdjust="spacingAndGlyphs">1 day</text>
<text x="853" y="438" font-size="9.5" font-weight="700" letter-spacing=".18em" fill="#5c6672" textLength="83.6" lengthAdjust="spacing">LAST COMMIT</text>
<text x="1036" y="438" font-size="11.5" font-weight="400" fill="#e8ecf1" text-anchor="end" textLength="34.5" lengthAdjust="spacingAndGlyphs">today</text>
<text x="853" y="464" font-size="9.5" font-weight="700" letter-spacing=".18em" fill="#5c6672" textLength="83.6" lengthAdjust="spacing">BUSIEST DAY</text>
<text x="1036" y="464" font-size="11.5" font-weight="400" fill="#e8ecf1" text-anchor="end" textLength="69.0" lengthAdjust="spacingAndGlyphs">28 aug '25</text>
<text x="853" y="490" font-size="9.5" font-weight="700" letter-spacing=".18em" fill="#5c6672" textLength="83.6" lengthAdjust="spacing">PEAK VOLUME</text>
<text x="1036" y="490" font-size="11.5" font-weight="400" fill="#e8ecf1" text-anchor="end" textLength="69.0" lengthAdjust="spacingAndGlyphs">12 commits</text>
</svg>
