<svg xmlns="http://www.w3.org/2000/svg" viewBox="0 0 1100 465" width="1100" height="465" role="img" aria-label="Activity telemetry — 14 repositories, 90 contributions in 12 months, 28 active days, longest streak 9 days. Regenerated 23 JUL 2026 12:49 UTC.">
<title>natishmourani — activity telemetry, regenerated 23 JUL 2026 12:49 UTC</title>
<style>text{font-family:ui-monospace,SFMono-Regular,'SF Mono',Menlo,Consolas,'DejaVu Sans Mono','Liberation Mono',monospace}.cap{font-size:11px;letter-spacing:.2em;font-weight:700}.path{font-size:11.5px}.meta{font-size:10.5px;letter-spacing:.2em}</style>
<rect width="1100" height="465" fill="#0d1117"/>
<text x="64" y="76" font-size="46" font-weight="300" fill="#e8ecf1" textLength="138.0" lengthAdjust="spacingAndGlyphs">0x004</text>
<text x="220" y="64" class="cap" fill="#f0a202">$</text>
<text x="228.8" y="64" class="cap" fill="#e8ecf1" textLength="70.4" lengthAdjust="spacing">ACTIVITY</text>
<text x="1036" y="64" class="path" fill="#5c6672" text-anchor="end">~/0x004-activity</text>
<line x1="330" y1="60" x2="920" y2="60" stroke="#242c36"/>
<text x="64" y="124" class="cap" fill="#9ecbff" textLength="316.8" lengthAdjust="spacing">TELEMETRY — WHAT THE HANDS ARE DOING</text>
<text x="1036" y="124" class="cap" fill="#5c6672" text-anchor="end" textLength="70.4" lengthAdjust="spacing">FIG. 004</text>
<line x1="64" y1="134" x2="1036" y2="134" stroke="#242c36"/>
<rect x="64" y="152" width="306" height="200" rx="3" fill="#080b10" stroke="#242c36"/>
<text x="84" y="180" class="cap" fill="#5c6672" textLength="193.6" lengthAdjust="spacing">LANGUAGE BY REPOSITORY</text>
<line x1="84" y1="192" x2="350" y2="192" stroke="#242c36"/>
<text x="84" y="224" font-size="11.5" font-weight="400" fill="#e8ecf1" textLength="41.4" lengthAdjust="spacingAndGlyphs">python</text>
<rect x="208.4" y="214" width="115.6" height="9" rx="1.5" fill="#1a1f28"/>
<rect x="208.4" y="214" width="115.6" height="9" rx="1.5" fill="#f0a202" opacity="1"/>
<text x="350" y="224" font-size="11.5" font-weight="400" fill="#e8ecf1" text-anchor="end" textLength="6.9" lengthAdjust="spacingAndGlyphs">4</text>
<text x="84" y="247" font-size="11.5" font-weight="400" fill="#5c6672" textLength="20.7" lengthAdjust="spacingAndGlyphs">c++</text>
<rect x="208.4" y="237" width="115.6" height="9" rx="1.5" fill="#1a1f28"/>
<rect x="208.4" y="237" width="86.7" height="9" rx="1.5" fill="#9ecbff" opacity="0.62"/>
<text x="350" y="247" font-size="11.5" font-weight="400" fill="#5c6672" text-anchor="end" textLength="6.9" lengthAdjust="spacingAndGlyphs">3</text>
<text x="84" y="270" font-size="11.5" font-weight="400" fill="#5c6672" textLength="110.4" lengthAdjust="spacingAndGlyphs">jupyter notebook</text>
<rect x="208.4" y="260" width="115.6" height="9" rx="1.5" fill="#1a1f28"/>
<rect x="208.4" y="260" width="57.8" height="9" rx="1.5" fill="#9ecbff" opacity="0.62"/>
<text x="350" y="270" font-size="11.5" font-weight="400" fill="#5c6672" text-anchor="end" textLength="6.9" lengthAdjust="spacingAndGlyphs">2</text>
<text x="84" y="293" font-size="11.5" font-weight="400" fill="#5c6672" textLength="27.6" lengthAdjust="spacingAndGlyphs">html</text>
<rect x="208.4" y="283" width="115.6" height="9" rx="1.5" fill="#1a1f28"/>
<rect x="208.4" y="283" width="57.8" height="9" rx="1.5" fill="#9ecbff" opacity="0.62"/>
<text x="350" y="293" font-size="11.5" font-weight="400" fill="#5c6672" text-anchor="end" textLength="6.9" lengthAdjust="spacingAndGlyphs">2</text>
<text x="84" y="316" font-size="11.5" font-weight="400" fill="#5c6672" textLength="13.8" lengthAdjust="spacingAndGlyphs">c#</text>
<rect x="208.4" y="306" width="115.6" height="9" rx="1.5" fill="#1a1f28"/>
<rect x="208.4" y="306" width="57.8" height="9" rx="1.5" fill="#9ecbff" opacity="0.62"/>
<text x="350" y="316" font-size="11.5" font-weight="400" fill="#5c6672" text-anchor="end" textLength="6.9" lengthAdjust="spacingAndGlyphs">2</text>
<text x="84" y="339" font-size="11.5" font-weight="400" fill="#5c6672" textLength="55.2" lengthAdjust="spacingAndGlyphs">assembly</text>
<rect x="208.4" y="329" width="115.6" height="9" rx="1.5" fill="#1a1f28"/>
<rect x="208.4" y="329" width="28.9" height="9" rx="1.5" fill="#9ecbff" opacity="0.62"/>
<text x="350" y="339" font-size="11.5" font-weight="400" fill="#5c6672" text-anchor="end" textLength="6.9" lengthAdjust="spacingAndGlyphs">1</text>
<rect x="397" y="152" width="306" height="200" rx="3" fill="#080b10" stroke="#242c36"/>
<text x="417" y="180" class="cap" fill="#5c6672" textLength="237.6" lengthAdjust="spacing">CONTRIBUTION VELOCITY · 26W</text>
<line x1="417" y1="192" x2="683" y2="192" stroke="#242c36"/>
<line x1="423" y1="214" x2="677" y2="214" stroke="#242c36" stroke-dasharray="2 4"/>
<line x1="423" y1="262.0" x2="677" y2="262.0" stroke="#242c36" stroke-dasharray="2 4"/>
<line x1="423" y1="310" x2="677" y2="310" stroke="#242c36" stroke-dasharray="2 4"/>
<path d="M 423.0 310 L 423.0 310.0 L 433.2 310.0 L 443.3 310.0 L 453.5 310.0 L 463.6 310.0 L 473.8 310.0 L 484.0 310.0 L 494.1 310.0 L 504.3 310.0 L 514.4 310.0 L 524.6 310.0 L 534.8 299.3 L 544.9 214.0 L 555.1 272.7 L 565.2 294.0 L 575.4 278.0 L 585.6 299.3 L 595.7 310.0 L 605.9 310.0 L 616.0 246.0 L 626.2 310.0 L 636.4 278.0 L 646.5 283.3 L 656.7 310.0 L 666.8 267.3 L 677.0 272.7 L 677.0 310 Z" fill="#9ecbff" fill-opacity=".10"/>
<polyline points="423.0,310.0 433.2,310.0 443.3,310.0 453.5,310.0 463.6,310.0 473.8,310.0 484.0,310.0 494.1,310.0 504.3,310.0 514.4,310.0 524.6,310.0 534.8,299.3 544.9,214.0 555.1,272.7 565.2,294.0 575.4,278.0 585.6,299.3 595.7,310.0 605.9,310.0 616.0,246.0 626.2,310.0 636.4,278.0 646.5,283.3 656.7,310.0 666.8,267.3 677.0,272.7" fill="none" stroke="#9ecbff" stroke-width="1.6" stroke-linejoin="round" stroke-linecap="round"/>
<line x1="423" y1="310" x2="677" y2="310" stroke="#5c6672"/>
<g><circle cx="544.9" cy="214.0" r="3.4" fill="#f0a202"/><circle cx="544.9" cy="214.0" r="3.4" fill="none" stroke="#f0a202" stroke-width="1.2"><animate attributeName="r" values="3.4;11" dur="2s" repeatCount="indefinite"/><animate attributeName="opacity" values="0.8;0" dur="2s" repeatCount="indefinite"/></circle></g>
<text x="423" y="326" font-size="10" font-weight="400" fill="#5c6672" textLength="42.0" lengthAdjust="spacingAndGlyphs">jan '26</text>
<text x="677" y="326" font-size="10" font-weight="400" fill="#5c6672" text-anchor="end" textLength="42.0" lengthAdjust="spacingAndGlyphs">jul '26</text>
<text x="423" y="338" font-size="10.5" font-weight="400" fill="#5c6672" textLength="126.0" lengthAdjust="spacingAndGlyphs">trend — accelerating</text>
<text x="792" y="200" font-size="30" font-weight="700" fill="#f0a202" text-anchor="end" textLength="36.0" lengthAdjust="spacingAndGlyphs">14</text>
<text x="808" y="194" class="cap" fill="#5c6672" textLength="105.6" lengthAdjust="spacing">REPOSITORIES</text>
<text x="792" y="246" font-size="30" font-weight="700" fill="#f0a202" text-anchor="end" textLength="36.0" lengthAdjust="spacingAndGlyphs">90</text>
<text x="808" y="240" class="cap" fill="#5c6672" textLength="167.2" lengthAdjust="spacing">CONTRIBUTIONS · 12M</text>
<text x="792" y="292" font-size="30" font-weight="700" fill="#f0a202" text-anchor="end" textLength="36.0" lengthAdjust="spacingAndGlyphs">28</text>
<text x="808" y="286" class="cap" fill="#5c6672" textLength="96.8" lengthAdjust="spacing">ACTIVE DAYS</text>
<text x="792" y="338" font-size="30" font-weight="700" fill="#f0a202" text-anchor="end" textLength="18.0" lengthAdjust="spacingAndGlyphs">9</text>
<text x="808" y="332" class="cap" fill="#5c6672" textLength="123.2" lengthAdjust="spacing">LONGEST STREAK</text>
<line x1="64" y1="386" x2="1036" y2="386" stroke="#242c36"/>
<text x="64.0" y="410" class="cap" fill="#5c6672" textLength="123.2" lengthAdjust="spacing">CURRENT STREAK</text>
<text x="64.0" y="435" font-size="17" font-weight="400" fill="#e8ecf1" textLength="51.0" lengthAdjust="spacingAndGlyphs">1 day</text>
<text x="307.0" y="410" class="cap" fill="#5c6672" textLength="96.8" lengthAdjust="spacing">LAST COMMIT</text>
<text x="307.0" y="435" font-size="17" font-weight="400" fill="#e8ecf1" textLength="91.8" lengthAdjust="spacingAndGlyphs">yesterday</text>
<text x="550.0" y="410" class="cap" fill="#5c6672" textLength="96.8" lengthAdjust="spacing">BUSIEST DAY</text>
<text x="550.0" y="435" font-size="17" font-weight="400" fill="#e8ecf1" textLength="112.2" lengthAdjust="spacingAndGlyphs">28 aug 2025</text>
<text x="793.0" y="410" class="cap" fill="#5c6672" textLength="96.8" lengthAdjust="spacing">PEAK VOLUME</text>
<text x="793.0" y="435" font-size="17" font-weight="400" fill="#e8ecf1" textLength="102.0" lengthAdjust="spacingAndGlyphs">12 commits</text>
</svg>
